# xmcd
#
# Track frame offsets:
#	150
#	3313
#	23788
#	44038
#	59338
#	61438
#	78827
#	90527
#	94427
#	108853
#	122541
#	147141
#	150104
#	168495
#	178245
#	196170
#	206520
#	218820
#	222899
#	242411
#	253699
#	262362
#	270275
#	280438
#	293062
#
# Disc length: 3976 seconds
#
# Revision: 0
# Processed by: cddbd v1.5.2PL0 Copyright (c) Steve Scherf et al.
# Submitted via: EasyCDDAExtractor 16.0.6.1
#
DISCID=670f8619
DTITLE=Συλλογικός δίσκος - Αντρικά μουνάτα 2.1
DYEAR=2003
DGENRE=Γαμοτράγουδα
TTITLE0=Μελίκης Γιώργης - Είδ' ένα μουρό του μνι (Αλτσάτ' κου) [Αγιάσος Μυτιλή
TTITLE0=νης]
TTITLE1=Μελίκης Γιώργης - Πλατώνα [συρτό Δραβίσκου Σερρών]
TTITLE2=Κοντός Κώστας - Αποκριάτικο [συρτομπάλλος Καστελόριζου]
TTITLE3=Μελίκης Γιώργης-Κασούρας Βασίλης - Σίρμπα [Λέρου]
TTITLE4=Πλακίδας Γιάννης-Καλεμκερίδου Σοφία - Έρμα μουνιάτα πούτσαλα [πανελλήν
TTITLE4=ιο, παιχνίδι γλωσσοδέτης]
TTITLE5=Τρυπάκης Γλύκανθος - Μαντινάδες [Κρήτη]
TTITLE6=Χορωδία - Σουμάσα ξημερώματα [Πόντου, λύρα Φίλ. Κεσαπίδης]
TTITLE7=Πλακίδας Γιάννης - Ήμουνα δώδεκα χρονώ [Θεσσαλονίκης]
TTITLE8=Λαδά Μαρία-χορωδία - Εξ-εφτά καλογριές ή Ο λουτρός [συρτομπάλλος Αλάτσ
TTITLE8=ατα Μ. Ασίας]
TTITLE9=Χορωδία - Το πιπέρι [κυκλικός χορός Καστελόριζου]
TTITLE10=Χορωδία - ''Τράτα'' [δρώμενο βορειοκεντρικής Λέσβου]
TTITLE11=Πλακίδας Γιάννης-Καλεμκερίδου Σοφία - Τσαταλίνα-ματαλίνα [πανελλήνιο 
TTITLE11=παιχνιδάκι]
TTITLE12=Σβαρνογιάννης Γιάννης - Αντάριασαν οι πουταμιές [περιοχής Πιερίων]
TTITLE13=Μελίκης Γιώργης-χορωδία - Ντουρ ντουρ ντουρ [συρτό Λιτοχώρου]
TTITLE14=Κασούρας Βασίλης-χορωδία - Σε ποιον τα λέγεις όλα αυτά ή Ο γεροδάσκαλ
TTITLE14=ος[συρτοπηδηχτός Φλώρινας]
TTITLE15=παπα Λεβέντιος Μαλαπέρδας - Το ψαλτήρι του παπα Λεβέντιου Μαλαπέρδα
TTITLE16=Μελίκης Γιώργης - Η κότα (Αγιοζούμι-τυροζούμι) [Γαστούνι Ηλείας-Αρκαδ
TTITLE16=ία]
TTITLE17=Ομάδα καλαντιστών - Μαρή αρκούδα μαλλιαρή [κάλαντα Ανατολικής Ρωμυλία
TTITLE17=ς]
TTITLE18=Μελίκης Γιώργης-ομάδα - Αινίγματα
TTITLE19=Χορωδία και μαντολινάτα της Πούτζας - Η βδομάδα του τεμπέλη γαμιά [Επ
TTITLE19=τανήσου]
TTITLE20=Μελίκης Γιώργης-χορωδία - Τρίψιμο [Αγιάσου Μυτιλήνης]
TTITLE21=Χορωδία ανδρών - Το μερακλίδικο μουνί [συρτό Ερυθραίας Μ. Ασίας]
TTITLE22=Μελίκης Γιώργης - Παπάς κι διάκους [συρτό Θεσσαλονίκης]
TTITLE23=Χορωδία - Katino al Papapetri [βλάχικο Κλεισούρας Καστοριάς]
TTITLE24=Μελίκης Γιώργης - Ντελάλικο [Πιερίων]
EXTD=
EXTT0=
EXTT1=
EXTT2=
EXTT3=
EXTT4=
EXTT5=
EXTT6=
EXTT7=
EXTT8=
EXTT9=
EXTT10=
EXTT11=
EXTT12=
EXTT13=
EXTT14=
EXTT15=
EXTT16=
EXTT17=
EXTT18=
EXTT19=
EXTT20=
EXTT21=
EXTT22=
EXTT23=
EXTT24=
PLAYORDER=
